# xmcd
#
# Track frame offsets:
#  150
#  21380
#  40964
#  54173
#  78095
#  96126
#  106628
#  127970
#  139672
#  160714
#  177270
#  189544
#  203535
#  216187
#  237209
#  257013
#  270848
#  292235
#  305795
#  323582
#  339451
#
# Disc length: 4783 seconds
#
# Revision: 0
# Processed by: cddbd v1.5.2PL0 Copyright (c) Steve Scherf et al.
# Submitted via: AltoMP3_Maker 3.0
#
DISCID=1c12ad15
DTITLE=Various Artist - Travelin' Texas #3
DYEAR=1900
DGENRE=
TTITLE0=Flatland - The South Wind of Summer
TTITLE1=Gary P. Nunn - What I Like about Texas
TTITLE2=Lavelle White - Wootie Boogie
TTITLE3=Jerry Jeff Walker - Keep Texas Beautiful
TTITLE4=Toni Price - Tumbleweed
TTITLE5=Conjunto Los Pinkys - La Guerita
TTITLE6=Austin Lounge Lizards - Old Blevins
TTITLE7=Daniel Makins - Long Time Ago
TTITLE8=Rosie Flores - Speed of Sound
TTITLE9=Pat Green - Take Me Out to a Dancehall
TTITLE10=Joe Carr and Alan Munde - Big Black Dog
TTITLE11=Sisters Morales - Cancion Mixteca
TTITLE12=Rodney Hayden - Heartaches and Highways
TTITLE13=Kimmie Rhodes - Only Love Can Save Me Now
TTITLE14=Django Walker - Texas Blacktop Highway
TTITLE15=Cedryl Ballou and the Zydeco Trendsetters - Creole Girls
TTITLE16=The Randy Rogers Band - Tommy Jackson
TTITLE17=The Lucky Tomblin Band - Sense of Wonder
TTITLE18=Beth Williams - A Ladder I Can Climb
TTITLE19=houston Marchman - Wichita Falls
TTITLE20=Katy Moffatt - The Brazos
EXTD=
EXTT0=
EXTT1=
EXTT2=
EXTT3=
EXTT4=
EXTT5=
EXTT6=
EXTT7=
EXTT8=
EXTT9=
EXTT10=
EXTT11=
EXTT12=
EXTT13=
EXTT14=
EXTT15=
EXTT16=
EXTT17=
EXTT18=
EXTT19=
EXTT20=
PLAYORDER=
